<mxfile host="app.diagrams.net">
  <diagram name="Secure External Sharing - Email and Box" id="0">
    <mxGraphModel dx="1200" dy="720" grid="1" gridSize="10" guides="1" tooltips="1" connect="1" arrows="1" fold="1" page="1" pageScale="1" pageWidth="850" pageHeight="1100" math="0" shadow="0">
      <root>
        <mxCell id="0"/>
        <mxCell id="1" parent="0"/>

        <mxCell id="2" value="Internal User (Sender)" style="swimlane" vertex="1" parent="1">
          <mxGeometry x="0" y="0" width="280" height="1000" as="geometry"/>
        </mxCell>
        <mxCell id="3" value="Security Controls (Purview, Box, Email)" style="swimlane" vertex="1" parent="1">
          <mxGeometry x="280" y="0" width="280" height="1000" as="geometry"/>
        </mxCell>
        <mxCell id="4" value="External User or Vendor" style="swimlane" vertex="1" parent="1">
          <mxGeometry x="560" y="0" width="280" height="1000" as="geometry"/>
        </mxCell>

        <mxCell id="5" value="" style="ellipse;whiteSpace=wrap;html=1;aspect=fixed;fillColor=#000000;" vertex="1" parent="2">
          <mxGeometry x="120" y="20" width="30" height="30" as="geometry"/>
        </mxCell>

        <mxCell id="6" value="User Shares File or Sends Email with Sensitive Content" style="rounded=1;whiteSpace=wrap;html=1;" vertex="1" parent="2">
          <mxGeometry x="40" y="70" width="200" height="60" as="geometry"/>
        </mxCell>

        <mxCell id="7" value="DLP Policy Triggers Inspection on Content and Recipient" style="rounded=1;whiteSpace=wrap;html=1;" vertex="1" parent="3">
          <mxGeometry x="40" y="70" width="200" height="60" as="geometry"/>
        </mxCell>

        <mxCell id="8" value="Sensitive Data Detected?" style="rhombus;whiteSpace=wrap;html=1;" vertex="1" parent="3">
          <mxGeometry x="80" y="150" width="120" height="80" as="geometry"/>
        </mxCell>

        <mxCell id="9" value="Encrypt File or Email + Set Time-To-Live (TTL)" style="rounded=1;whiteSpace=wrap;html=1;" vertex="1" parent="3">
          <mxGeometry x="40" y="250" width="200" height="60" as="geometry"/>
        </mxCell>

        <mxCell id="10" value="Share Secure Link with External User (Email or Box)" style="rounded=1;whiteSpace=wrap;html=1;" vertex="1" parent="3">
          <mxGeometry x="40" y="330" width="200" height="60" as="geometry"/>
        </mxCell>

        <mxCell id="11" value="External User Accesses Encrypted Link" style="rounded=1;whiteSpace=wrap;html=1;" vertex="1" parent="4">
          <mxGeometry x="40" y="330" width="200" height="60" as="geometry"/>
        </mxCell>

        <mxCell id="12" value="TTL Expired or Access Revoked?" style="rhombus;whiteSpace=wrap;html=1;" vertex="1" parent="3">
          <mxGeometry x="80" y="420" width="120" height="80" as="geometry"/>
        </mxCell>

        <mxCell id="13" value="Block Access to File or Email" style="rounded=1;whiteSpace=wrap;html=1;" vertex="1" parent="3">
          <mxGeometry x="40" y="520" width="200" height="60" as="geometry"/>
        </mxCell>

        <mxCell id="14" value="" style="ellipse;whiteSpace=wrap;html=1;aspect=fixed;fillColor=#000000;" vertex="1" parent="3">
          <mxGeometry x="110" y="600" width="30" height="30" as="geometry"/>
        </mxCell>

        <mxCell id="e1" style="endArrow=none;" edge="1" parent="2" source="5" target="6"><mxGeometry relative="1" as="geometry"/></mxCell>
        <mxCell id="e2" style="endArrow=block;" edge="1" parent="2" source="6" target="7"><mxGeometry relative="1" as="geometry"/></mxCell>
        <mxCell id="e3" value="Yes" style="endArrow=block;" edge="1" parent="3" source="8" target="9"><mxGeometry relative="1" as="geometry"/></mxCell>
        <mxCell id="e4" value="No" style="endArrow=block;" edge="1" parent="3" source="8" target="10"><mxGeometry relative="1" as="geometry"/></mxCell>
        <mxCell id="e5" style="endArrow=block;" edge="1" parent="3" source="9" target="10"><mxGeometry relative="1" as="geometry"/></mxCell>
        <mxCell id="e6" style="endArrow=block;" edge="1" parent="3" source="10" target="11"><mxGeometry relative="1" as="geometry"/></mxCell>
        <mxCell id="e7" value="Yes" style="endArrow=block;" edge="1" parent="3" source="12" target="13"><mxGeometry relative="1" as="geometry"/></mxCell>
        <mxCell id="e8" style="endArrow=block;" edge="1" parent="3" source="13" target="14"><mxGeometry relative="1" as="geometry"/></mxCell>
        <mxCell id="e9" style="endArrow=block;" edge="1" parent="3" source="11" target="12"><mxGeometry relative="1" as="geometry"/></mxCell>
      </root>
    </mxGraphModel>
  </diagram>
</mxfile>